<svg xmlns="http://www.w3.org/2000/svg" xmlns:xlink="http://www.w3.org/1999/xlink" viewBox="0 0 192 192"><defs><style>.cls-1{isolation:isolate;}.cls-2{fill:none;}.cls-3{fill:url(#linear-gradient);}.cls-4{fill:url(#linear-gradient-2);}.cls-5{fill:url(#linear-gradient-3);}.cls-6{fill:#c3d3dd;mix-blend-mode:multiply;}.cls-7{fill:url(#linear-gradient-4);}.cls-8{fill:url(#linear-gradient-5);}</style><linearGradient id="linear-gradient" x1="-16.99" y1="130.68" x2="48.27" y2="61.62" gradientUnits="userSpaceOnUse"><stop offset="0" stop-color="#68acff"/><stop offset="0.2" stop-color="#5591ff"/><stop offset="0.51" stop-color="#3b6bff"/><stop offset="0.61" stop-color="#3a66f6"/><stop offset="0.77" stop-color="#385adc"/><stop offset="0.97" stop-color="#3545b3"/><stop offset="1" stop-color="#3542ad"/></linearGradient><linearGradient id="linear-gradient-2" x1="10.69" y1="30.22" x2="91.96" y2="183.28" gradientUnits="userSpaceOnUse"><stop offset="0" stop-color="#fc71b6"/><stop offset="0.48" stop-color="#ff006c"/><stop offset="0.54" stop-color="#eb087d"/><stop offset="0.76" stop-color="#a922b8"/><stop offset="0.92" stop-color="#8032dc"/><stop offset="1" stop-color="#7038ea"/></linearGradient><linearGradient id="linear-gradient-3" x1="58.82" y1="144.69" x2="127.52" y2="60.03" xlink:href="#linear-gradient"/><linearGradient id="linear-gradient-4" x1="259.54" y1="177.21" x2="214.18" y2="197.73" gradientTransform="translate(-16.37 -10.89) rotate(-2.68)" xlink:href="#linear-gradient-2"/><linearGradient id="linear-gradient-5" x1="251.8" y1="156.19" x2="251.8" y2="413.7" xlink:href="#linear-gradient"/></defs><title>android-chrome-192x192</title><g class="cls-1"><g id="OBJECTS"><rect class="cls-2" width="192" height="192" rx="4"/><polygon class="cls-3" points="9.32 28.16 1.37 13.71 1.37 44.17 1.37 176.15 32.21 176.15 32.21 136.72 32.21 101.17 9.32 28.16"/><polygon class="cls-4" points="88.72 176.15 55.52 176.15 3.73 20.8 1.37 13.71 34.57 13.71 82.8 158.38 88.72 176.15"/><polygon class="cls-5" points="55.52 176.15 88.72 176.15 140.5 20.8 142.87 13.71 109.67 13.71 61.44 158.38 55.52 176.15"/><polygon class="cls-6" points="109.67 13.71 104.91 127.57 109.67 113.31 113.59 24.49 109.67 13.71"/><path class="cls-7" d="M248.67,144a101.47,101.47,0,0,0-22-.91l-4.35.28a26.82,26.82,0,0,0-4.18.52c-3.35.63-7,1.4-7,1.4l1.46,43.88s3.8-5.37,6.82-6.84a19.59,19.59,0,0,1,6.38-2.43,75.84,75.84,0,0,1,10.44-1.28,94.93,94.93,0,0,1,13.77.27q5.89.57,8.41.63l-1.12-33.72A57.36,57.36,0,0,0,248.67,144Z" transform="translate(-101.65 -129.25)"/><path class="cls-8" d="M285.75,270.69a95.22,95.22,0,0,1-16.26,1.18q-9.23,0-13.92-1.42a10.28,10.28,0,0,1-7.12-5.9q-2.26-4.73-2.6-14.17-.33-12.27-.33-25.49V143h-34.2v77.68h0c0,1.39,0,2.8,0,4.25q0,25.5,1.76,40.72t6.62,24.44a29,29,0,0,0,14.84,13.81q9.79,4.13,26.57,4.13a103,103,0,0,0,12.57-.7,88.3,88.3,0,0,0,18.6-3.55V269.51A45.21,45.21,0,0,1,285.75,270.69Z" transform="translate(-101.65 -129.25)"/><polygon class="cls-6" points="1.37 13.71 32.21 128.64 32.21 106.24 1.37 13.71"/><path class="cls-6" d="M248.74,142.51l-3.22.45v43.92a39.72,39.72,0,0,1,3.22-3.57Z" transform="translate(-101.65 -129.25)"/><polygon class="cls-6" points="55.52 176.15 69.56 118.67 72.12 126.34 55.52 176.15"/></g></g></svg>