<svg xmlns="http://www.w3.org/2000/svg" xmlns:xlink="http://www.w3.org/1999/xlink" viewBox="0 0 348.07 348.07"><defs><style>.cls-1{isolation:isolate;}.cls-2{fill:none;}.cls-3{fill:url(#linear-gradient);}.cls-4{fill:url(#linear-gradient-2);}.cls-5{fill:url(#linear-gradient-3);}.cls-6{fill:#c3d3dd;mix-blend-mode:multiply;}.cls-7{fill:url(#linear-gradient-4);}.cls-8{fill:url(#linear-gradient-5);}</style><linearGradient id="linear-gradient" x1="-30.64" y1="236.98" x2="87.67" y2="111.78" gradientUnits="userSpaceOnUse"><stop offset="0" stop-color="#68acff"/><stop offset="0.2" stop-color="#5591ff"/><stop offset="0.51" stop-color="#3b6bff"/><stop offset="0.61" stop-color="#3a66f6"/><stop offset="0.77" stop-color="#385adc"/><stop offset="0.97" stop-color="#3545b3"/><stop offset="1" stop-color="#3542ad"/></linearGradient><linearGradient id="linear-gradient-2" x1="19.54" y1="54.85" x2="166.87" y2="332.34" gradientUnits="userSpaceOnUse"><stop offset="0" stop-color="#fc71b6"/><stop offset="0.48" stop-color="#ff006c"/><stop offset="0.54" stop-color="#eb087d"/><stop offset="0.76" stop-color="#a922b8"/><stop offset="0.92" stop-color="#8032dc"/><stop offset="1" stop-color="#7038ea"/></linearGradient><linearGradient id="linear-gradient-3" x1="106.8" y1="262.37" x2="231.34" y2="108.89" xlink:href="#linear-gradient"/><linearGradient id="linear-gradient-4" x1="305.22" y1="133.43" x2="222.98" y2="170.63" gradientTransform="translate(-16.37 -10.89) rotate(-2.68)" xlink:href="#linear-gradient-2"/><linearGradient id="linear-gradient-5" x1="295.9" y1="112.11" x2="295.9" y2="578.93" xlink:href="#linear-gradient"/></defs><title>SkeleNews</title><g class="cls-1"><g id="OBJECTS"><rect class="cls-2" width="348.07" height="348.07" rx="4"/><polygon class="cls-3" points="17.06 51.13 2.66 24.92 2.66 80.14 2.66 319.4 58.57 319.4 58.57 247.93 58.57 183.48 17.06 51.13"/><polygon class="cls-4" points="161 319.41 100.82 319.41 6.94 37.77 2.66 24.92 62.84 24.92 150.27 287.19 161 319.41"/><polygon class="cls-5" points="100.82 319.41 161 319.41 254.88 37.77 259.16 24.92 198.98 24.92 111.55 287.19 100.82 319.41"/><polygon class="cls-6" points="198.98 24.92 190.36 231.34 198.98 205.48 206.1 44.48 198.98 24.92"/><path class="cls-7" d="M290.22,89.94a184,184,0,0,0-39.91-1.66l-7.89.52a49.43,49.43,0,0,0-7.58.93c-6.07,1.15-12.69,2.55-12.69,2.55l2.64,79.54s6.9-9.74,12.37-12.4A35.34,35.34,0,0,1,248.72,155a136.23,136.23,0,0,1,18.94-2.31,170.8,170.8,0,0,1,25,.49q10.68,1,15.25,1.15l-2-61.15A103.79,103.79,0,0,0,290.22,89.94Z" transform="translate(-23.54 -63.2)"/><path class="cls-8" d="M357.44,319.68A172.91,172.91,0,0,1,328,321.82q-16.71,0-25.22-2.57a18.69,18.69,0,0,1-12.92-10.7q-4.1-8.57-4.71-25.68-.6-22.26-.6-46.23V88.12h-62V228.94h0c0,2.53,0,5.07,0,7.7q0,46.23,3.19,73.83t12,44.3a52.51,52.51,0,0,0,26.89,25q17.77,7.49,48.17,7.49A185,185,0,0,0,335.56,386a160.7,160.7,0,0,0,33.73-6.42V317.54A80.73,80.73,0,0,1,357.44,319.68Z" transform="translate(-23.54 -63.2)"/><polygon class="cls-6" points="2.66 24.92 58.57 233.27 58.57 192.67 2.66 24.92"/><path class="cls-6" d="M290.35,87.3l-5.84.82v79.63a71,71,0,0,1,5.84-6.47Z" transform="translate(-23.54 -63.2)"/><polygon class="cls-6" points="100.82 319.41 126.27 215.19 130.91 229.12 100.82 319.41"/></g></g></svg>