<svg xmlns="http://www.w3.org/2000/svg" xmlns:xlink="http://www.w3.org/1999/xlink" viewBox="0 0 456.35 283.3"><defs><style>.cls-1{isolation:isolate;}.cls-2{fill:url(#linear-gradient);}.cls-3{fill:url(#linear-gradient-2);}.cls-4{fill:url(#linear-gradient-3);}.cls-5{fill:#c3d3dd;mix-blend-mode:multiply;}.cls-6{fill:url(#linear-gradient-4);}.cls-7{fill:url(#linear-gradient-5);}</style><linearGradient id="linear-gradient" x1="-25.74" y1="206.41" x2="85.98" y2="88.18" gradientUnits="userSpaceOnUse"><stop offset="0" stop-color="#68acff"/><stop offset="0.2" stop-color="#5591ff"/><stop offset="0.51" stop-color="#3b6bff"/><stop offset="0.61" stop-color="#3a66f6"/><stop offset="0.77" stop-color="#385adc"/><stop offset="0.97" stop-color="#3545b3"/><stop offset="1" stop-color="#3542ad"/></linearGradient><linearGradient id="linear-gradient-2" x1="41.15" y1="18.99" x2="192.9" y2="304.79" gradientUnits="userSpaceOnUse"><stop offset="0" stop-color="#fc71b6"/><stop offset="0.48" stop-color="#ff006c"/><stop offset="0.54" stop-color="#eb087d"/><stop offset="0.76" stop-color="#a922b8"/><stop offset="0.92" stop-color="#8032dc"/><stop offset="1" stop-color="#7038ea"/></linearGradient><linearGradient id="linear-gradient-3" x1="158.18" y1="235.57" x2="290.38" y2="72.65" xlink:href="#linear-gradient"/><linearGradient id="linear-gradient-4" x1="387.6" y1="150.43" x2="288.72" y2="195.16" gradientTransform="translate(-16.37 -10.89) rotate(-2.68)" xlink:href="#linear-gradient-2"/><linearGradient id="linear-gradient-5" x1="382.17" y1="129.44" x2="382.17" y2="570.27" xlink:href="#linear-gradient"/></defs><title>SkeleNews</title><g class="cls-1"><g id="OBJECTS"><polygon class="cls-2" points="19.16 25.52 0 0.77 0 52.91 0 278.86 74.37 278.86 74.37 211.36 74.37 150.5 19.16 25.52"/><polygon class="cls-3" points="210.62 278.86 130.57 278.86 5.69 12.91 0 0.77 80.05 0.77 196.34 248.43 210.62 278.86"/><polygon class="cls-4" points="130.57 278.86 210.62 278.86 335.49 12.91 341.18 0.77 261.13 0.77 144.84 248.43 130.57 278.86"/><polygon class="cls-5" points="261.13 0.77 249.67 195.69 261.13 171.28 270.6 19.24 261.13 0.77"/><path class="cls-6" d="M374.61,108.5a342.45,342.45,0,0,0-53.08-1.56l-10.5.49a92,92,0,0,0-10.07.87c-8.08,1.09-16.88,2.41-16.88,2.41l3.51,75.12s9.18-9.2,16.45-11.72A60,60,0,0,1,319.42,170q9.43-1.44,25.19-2.19a319.88,319.88,0,0,1,33.2.47q14.2,1,20.28,1.08l-2.7-57.74A190.12,190.12,0,0,0,374.61,108.5Z" transform="translate(-23.43 -106.01)"/><path class="cls-7" d="M464,325.45a322.21,322.21,0,0,1-39.21,2q-22.23,0-33.54-2.43-11.73-2-17.18-10.1t-6.26-24.25q-.82-21-.81-43.65V106.78H284.56v133h0c0,2.39,0,4.79,0,7.28q0,43.65,4.25,69.72t16,41.83q12.14,16.57,35.77,23.65t64.07,7.07q16.56,0,30.31-1.21A291.25,291.25,0,0,0,479.78,382v-58.6A148.24,148.24,0,0,1,464,325.45Z" transform="translate(-23.43 -106.01)"/><polygon class="cls-5" points="0 0.77 74.37 197.52 74.37 159.18 0 0.77"/><path class="cls-5" d="M374.79,106c-4.44.43-7.77.77-7.77.77V182a80.61,80.61,0,0,1,7.77-6.11Z" transform="translate(-23.43 -106.01)"/><polygon class="cls-5" points="130.57 278.86 164.42 180.45 170.59 193.6 130.57 278.86"/></g></g></svg>